<svg xmlns="http://www.w3.org/2000/svg" xmlns:xlink="http://www.w3.org/1999/xlink" width="20" height="20" viewBox="0 0 20 20"><defs><style>.a{fill:url(#a);}.b{fill:url(#b);}.c{fill:url(#c);}.d{fill:url(#d);}.e{fill:url(#e);}.f{fill:url(#f);}.g{fill:url(#g);}.h{fill:url(#h);}</style><linearGradient id="a" y1="0.5" x2="1" y2="0.5" gradientUnits="objectBoundingBox"><stop offset="0" stop-color="#ff637b"/><stop offset="1" stop-color="#f90217"/></linearGradient><linearGradient id="b" x1="0.799" y1="1.737" x2="0.065" y2="-0.534" xlink:href="#a"/><linearGradient id="c" x1="0.043" y1="0.309" x2="1.019" y2="0.694" gradientUnits="objectBoundingBox"><stop offset="0" stop-color="#ffd833"/><stop offset="1" stop-color="#f2b631"/></linearGradient><linearGradient id="d" x1="1.345" y1="0.738" x2="-0.149" y2="0.244" xlink:href="#c"/><linearGradient id="e" x1="0.44" y1="0.241" x2="0.655" y2="0.79" gradientUnits="objectBoundingBox"><stop offset="0" stop-color="#28a265"/><stop offset="1" stop-color="#28895e"/></linearGradient><linearGradient id="f" x1="0.831" y1="1.379" x2="0.082" y2="-0.9" xlink:href="#e"/><linearGradient id="g" x1="0.427" y1="0.134" x2="0.893" y2="0.685" gradientUnits="objectBoundingBox"><stop offset="0" stop-color="#7faef4"/><stop offset="1" stop-color="#4c8df1"/></linearGradient><linearGradient id="h" x1="1.023" y1="1.005" x2="0.265" y2="-0.088" xlink:href="#g"/></defs><g transform="translate(0 0)"><path class="a" d="M74.943,5.83a5.887,5.887,0,0,1,8.486-.284.393.393,0,0,0,.555-.019l2-2.131a.453.453,0,0,0-.011-.624,9.364,9.364,0,0,0-13.6.318,12.641,12.641,0,0,0,.033,2.733S73.848,7.007,74.943,5.83Z" transform="translate(-69.33)"/><path class="b" d="M100.18,46.911a5.778,5.778,0,0,1,8.392-.284.385.385,0,0,0,.549-.019l1.135-1.223c-.1-.082-.2-.169-.291-.26a7.882,7.882,0,0,0-5.541-2.287A7.767,7.767,0,0,0,98.778,45.4a5.865,5.865,0,0,0-.219,1.507S98.744,46.888,100.18,46.911Z" transform="translate(-94.518 -41.081)"/><path class="c" d="M3.877,82.2a5.97,5.97,0,0,0,1.947,4.44l-.933,1.889-1.808.683A9.376,9.376,0,0,1,3.048,75.34l2.741,2.572A5.968,5.968,0,0,0,3.877,82.2Z" transform="translate(0 -72.251)"/><path class="d" d="M44.963,110.957a5.856,5.856,0,0,0,1.947,4.382l-1.5,1.388a7.652,7.652,0,0,1-.048-11.4l1.511,1.4A5.855,5.855,0,0,0,44.963,110.957Z" transform="translate(-41.086 -101.011)"/><path class="e" d="M86.462,368.955a5.915,5.915,0,0,1-8.694-.006L75.2,371.69A9.325,9.325,0,0,0,89,371.663l-.735-1.675Z" transform="translate(-72.113 -354.733)"/><path class="f" d="M115.457,368.955a5.784,5.784,0,0,1-8.579-.006l-1.388,1.5a7.633,7.633,0,0,0,11.349,0Z" transform="translate(-101.165 -354.733)"/><path class="g" d="M265.823,220.082a.373.373,0,0,0-.373-.373h-9.733a.334.334,0,0,0-.334.334v3.218a.334.334,0,0,0,.334.334h4.753a.631.631,0,0,1,.542.954,6.554,6.554,0,0,1-1,1.28l0,0,2.709,2.709q.192-.192.388-.384a10.555,10.555,0,0,0,2.722-7.084Z" transform="translate(-245.823 -211.612)"/><path class="h" d="M263.628,266.849a1.785,1.785,0,0,0-1.692-2.349h-6.552v1.716a.334.334,0,0,0,.334.334h4.753a.631.631,0,0,1,.542.954,6.554,6.554,0,0,1-1,1.276l-.008.008,1.493,1.493a8.705,8.705,0,0,0,1.88-2.773Q263.516,267.185,263.628,266.849Z" transform="translate(-245.824 -254.308)"/></g></svg>