<svg xmlns="http://www.w3.org/2000/svg" width="200.345" height="62" viewBox="0 0 200.345 62"><defs><style>.a{fill:#1c3664;}</style></defs><g transform="translate(-4.13 -27.741)"><path class="a" d="M223.478,129.986c-11.2,0-19.728-7.951-19.728-20.526,0-12.5,8.816-20.38,20.017-20.38,11.276,0,20.021,7.864,20.021,20.38C243.787,122.036,234.754,129.986,223.478,129.986Zm0-5.782c6.865,0,13.587-4.7,13.587-14.744,0-9.973-6.576-14.673-13.369-14.673-6.939,0-13.227,4.7-13.227,14.673C210.468,119.5,216.614,124.2,223.478,124.2Z" transform="translate(-127.589 -40.245)"/><path class="a" d="M321,53.76h6.576v55.482H321Z" transform="translate(-201.806 -20.152)"/><path class="a" d="M357.189,54.315a4.408,4.408,0,1,1,4.494,4.34,4.5,4.5,0,0,1-3.2-1.247A4.185,4.185,0,0,1,357.189,54.315Zm1.082,10.539h6.576V103.1h-6.576Z" transform="translate(-224.898 -14.012)"/><path class="a" d="M398.911,79.582H393.78V74.163h5.131V64.19h6.58v9.973h10.332v5.419H405.49v23.342c0,3.906,1.446,5.277,5.49,5.277h4.842v5.565H409.9c-7.011,0-10.988-2.891-10.988-10.842Z" transform="translate(-248.529 -24.676)"/><path class="a" d="M471.832,129.986c-11.272,0-19.582-7.951-19.582-20.526,0-12.5,8.022-20.38,19.582-20.38,11.493,0,19.009,8.1,19.009,18.935a35.369,35.369,0,0,1-.217,3.977H458.972c.506,8.022,6.142,12.43,12.86,12.43,5.928,0,9.688-3.033,11.134-7.3h7.082C488.022,124.35,481.663,129.986,471.832,129.986Zm-12.789-23.335h25.005c.071-7.733-5.707-11.984-12.5-11.984C465.114,94.645,459.766,98.907,459.043,106.651Z" transform="translate(-286.367 -40.245)"/><path class="a" d="M88.585,66.27a6.408,6.408,0,1,0-4.538-1.877A6.415,6.415,0,0,0,88.585,66.27Z" transform="translate(-47.771 -16.806)"/><path class="a" d="M72.843,74.489,86.325,51.967a16.006,16.006,0,1,0-27.338.213ZM72.581,34.2a9.591,9.591,0,1,1-9.591,9.587A9.591,9.591,0,0,1,72.581,34.2Z" transform="translate(-32.811)"/><path class="a" d="M74.666,74.79,58.346,57.848a20.369,20.369,0,0,1-2.1,15.068L41.407,98.649a1.589,1.589,0,0,1-1.374.778h0a1.6,1.6,0,0,1-1.359-.778l-15.22-25.46A20.383,20.383,0,0,1,21.229,57.72L4.782,74.79a2.372,2.372,0,0,0,0,3.266,2.167,2.167,0,0,0,3.146,0L9.7,76.225v29.359a6.522,6.522,0,0,0,6.4,6.64H27.218a1.417,1.417,0,0,0,1.389-1.442H50.856a1.417,1.417,0,0,0,1.389,1.442H63.368a6.522,6.522,0,0,0,6.4-6.64V76.225l1.764,1.831a2.167,2.167,0,0,0,3.146,0,2.372,2.372,0,0,0,0-3.266Z" transform="translate(0 -22.629)"/></g></svg>